<?xml version="1.0" encoding="utf-8"?>
<!-- Generator: Adobe Illustrator 26.5.0, SVG Export Plug-In . SVG Version: 6.00 Build 0)  -->
<svg version="1.1" id="Layer_1" xmlns="http://www.w3.org/2000/svg" xmlns:xlink="http://www.w3.org/1999/xlink" x="0px" y="0px"
	 viewBox="0 0 32 32" style="enable-background:new 0 0 32 32;" xml:space="preserve">
<style type="text/css">
	.st0{fill:#1D1D1B;}
	.st1{fill:#FFFFFF;}
</style>
<path class="st0" d="M29,16.1c-3.6,3.3-9.2,3.2-12.7-0.3c0,0,0,0,0,0c0,0,0,0,0,0c0,0,0,0,0,0c0,0,0,0,0,0
	c-3.5-3.5-3.6-9.1-0.3-12.7c0,0,0,0,0,0C12.3-0.7,6.4-0.7,2.8,3c-3.6,3.6-3.6,9.5,0,13.1c0,0,0,0,0,0c-3.3,3.6-3.2,9.3,0.3,12.8
	c3.5,3.5,9.1,3.6,12.8,0.3c0,0,0,0,0,0c3.6,3.6,9.5,3.6,13.1,0C32.7,25.6,32.7,19.7,29,16.1C29,16.1,29,16.1,29,16.1z"/>
<path class="st0" d="M28,32.1H3.8c-2.1,0-3.9-1.7-3.9-3.9V4c0-2.1,1.7-3.9,3.9-3.9H28c2.1,0,3.9,1.7,3.9,3.9v24.2
	C31.9,30.3,30.2,32.1,28,32.1z"/>
<g>
	<path class="st1" d="M5.4,25.8c0-3.3,3.9-10.9,5.5-14.1c-5.1,0.6-9.1,1.6-13,2.9c-0.5,0.2-1-0.1-1.1-0.6c-0.2-0.5,0.1-1,0.6-1.2
		c4.4-1.5,9-2.6,15.1-3.1c0.3,0,0.7,0.1,0.9,0.4c0.2,0.3,0.2,0.7,0.1,1c-3.8,7.2-5.8,12.3-6,14.4c1-0.6,4.1-3.8,6.2-6.4
		c1.3-1.6,2.6-3.3,4-5.1c0.3-0.4,0.8-0.5,1.2-0.2c0.4,0.2,0.6,0.7,0.4,1.1c-2,5.2-3,8.7-2.9,10.7c0.8-0.5,3.8-3.7,7-7.8
		c2.4-3,4.9-6.6,6.9-9.7c0.3-0.4,0.8-0.6,1.3-0.3C31.8,8,31.9,8.5,31.6,9c-4.6,7.2-9.5,13.3-13.5,17.3c-0.8,0.7-1.5,1.3-2.2,1.3
		c-1.2,0-1.6-1.1-1.6-2.2c0-1.4,0.2-2.8,1.2-5.9c-4.7,5.6-7.3,8.1-8.7,8.1C5.9,27.5,5.4,26.7,5.4,25.8z"/>
</g>
</svg>
